# xmcd
#
# Track frame offsets:
#	150
#	25220
#	46460
#	67740
#	91170
#	119995
#	139625
#
# Disc length: 2183 seconds
#
# Revision: 0
# Processed by: cddbd v1.4PL0 Copyright (c) Steve Scherf et al.
# Submitted via: dBpowerAMP V4.0
#
DISCID=5b088507
DTITLE=Tony Warren - Rhapsody of Love
DYEAR=1900
DGENRE=
TTITLE0=Oh me, Oh My
TTITLE1=I'm Guilty
TTITLE2=Fool For Love
TTITLE3=Rhapsody of Love
TTITLE4=Love Don't Love Nobody
TTITLE5=Loves Door
TTITLE6=In A Sentimental Mood
EXTD=
EXTT0=
EXTT1=
EXTT2=
EXTT3=
EXTT4=
EXTT5=
EXTT6=
PLAYORDER=
